<svg version="1.2" xmlns="http://www.w3.org/2000/svg" viewBox="0 0 792 1064" width="792" height="1064">
	<title>export15-svg</title>
	<style>
		.s0 { fill: #000000 } 
	</style>
	<g>
		<path fill-rule="evenodd" class="s0" d="m220.5 13.1c1.7 0.2 7 0.6 11.9 0.9 6 0.4 12.2 1.7 19.1 4 10 3.3 26.1 11 30 14.5 1.1 0.9 2.8 2.1 3.7 2.6 4.8 2.6 17.4 15.3 24.1 24.5 4.7 6.3 11.3 19.3 15.1 29.4 5.8 15.7 5.6 5.9 5.6 272.8 0 267.2-0.1 260.2 5.6 272.3 1.3 2.8 2.4 5.4 2.4 5.7 0 0.4 1.2 2.6 2.8 4.9 8.8 13.9 15.6 20.3 31.4 29.7 2 1.2 7.8 3.5 12.9 5.1 8.2 2.7 10.6 3 21.4 3 10.8 0 13.3-0.3 21.6-3 11-3.5 17.5-6.8 24.4-12.3 15.5-12.4 24.5-26.6 28.5-45.1 1.9-8.7 2-13.6 2-158.8 0-144.4 0.3-163.4 3-172.3 6-20 12.8-31.5 27.4-46.1 11.7-11.6 23.9-20 33.6-22.9 1.4-0.4 4.3-1.6 6.6-2.6 2.3-1 9.7-2.4 17.6-3.3 12.1-1.3 15.2-1.3 26.9 0 8.1 0.9 14.9 2.2 17.7 3.4 2.4 1.1 4.9 2 5.4 2 1.5 0 13.6 6.2 19.2 9.8 11.4 7.3 25.9 22.3 31.3 32.3 1.3 2.3 2.7 4.7 3.2 5.3 1.7 2.2 6.3 14.2 8.9 23.6l2.7 9.5 0.2 187c0.2 140.8 0.6 187.6 1.5 189.2l1.1 2.3h28.1c16.1 0 29.7 0.4 31.8 1 2 0.6 4.8 2.4 6.2 4.1l2.6 3.1v39.7c0 44.5 0.3 42.7-7.4 46.2-2.2 1-6.4 1.9-9.2 1.9-9.2 0-8.3-12.2-8.6 122.8l-0.3 119.2-3.8 3.7-3.7 3.8-101 0.6-3.5-2.8c-2.1-1.6-3.9-4.3-4.5-6.3-0.6-2.2-1-47.3-1-120.7v-117.2l-2.2-1.5c-1.3-0.9-4.3-1.6-7-1.6-6.5 0-13.4-3.4-14.8-7.3-0.6-1.9-1-17.4-1-40.9 0-41.3 0-41.6 5.7-45.4 2.6-1.7 5.5-1.9 33.1-2.4 25.4-0.4 30.4-0.7 31.2-2 0.9-1.4 1.8-332.8 1-362-0.7-27.3-14.6-51.7-37.5-65.7-17.9-11-46-13.3-66-5.2-21.5 8.6-35.7 23.5-45.2 47.4l-2.8 7-0.5 159c-0.6 159-0.6 159-2.8 169-1.2 5.5-2.8 11.3-3.6 13-7.3 15.6-9.5 19.7-13 24.5-5.6 7.7-11.8 14.1-19.5 20.3-6.3 5-16.5 11.7-17.9 11.7-0.4 0-2.9 1.1-5.7 2.4-2.7 1.3-9 3.7-14 5.2-8.3 2.6-10.3 2.8-25.5 2.8-15.2 0-17.3-0.2-26-2.7-8.4-2.5-17.7-6.2-22-8.8-0.8-0.5-3.3-1.8-5.5-3-5.5-3-17.2-12.7-22-18.4-2.2-2.5-4.7-5.4-5.5-6.4-7.5-8.6-16.5-27.8-19.1-40.6-1-4.6-1.4-66.4-1.9-259-0.6-270.5-0.5-262.3-5.6-273.1-1.3-2.8-2.4-5.7-2.4-6.4 0-0.8-1.1-3-2.3-4.9-1.3-2-4-6.1-6-9.1-12.6-19.4-36-33.5-59.7-36.2-13.1-1.4-30.4 0-37.2 3-2.4 1.1-5.8 2.3-7.5 2.7-1.8 0.3-3.6 1.1-3.9 1.7-0.3 0.5-2.5 1.8-4.8 2.9-13.6 6.4-28.6 22.6-36.8 39.9-1.5 3-3.8 10-5.2 15.5l-2.6 9.9v282.8c0 278.5 0 282.7 1.9 283.8 1.2 0.6 12.7 1 30.3 1 31.8 0 33.7 0.4 37.1 7 1.6 3.2 1.7 6.9 1.5 42.8l-0.3 39.4-3.7 3.4c-3.4 3.1-4.3 3.4-9.7 3.4-3.3 0-7.1 0.4-8.5 1l-2.6 0.9-0.2 120-0.3 120-2.1 2.8c-1.1 1.5-3.6 3.3-5.5 4-4.4 1.5-95.6 1.8-101 0.3q-3.6-1.1-6.3-4.8l-2.6-3.8v-119.1c0-94.3-0.3-119.3-1.3-120-0.6-0.4-4.7-1-9-1.4-7.1-0.5-8-0.8-11.2-3.9l-3.5-3.4v-40l0.1-40.1 3-3.3c1.7-1.9 4.5-3.8 6.2-4.3 1.8-0.5 15.8-0.9 31.2-0.9 20.5 0 28.4-0.3 29.3-1.2 0.9-0.9 1.2-65.2 1.3-282.7 0-154.9 0.4-283.9 0.9-286.6 2.5-15.6 8-33.5 11.6-37.6 0.8-0.8 1.4-2 1.4-2.6 0-1.4 5.5-9.7 11.7-17.5 5.3-6.6 15.4-16.2 21.4-20.2 1.8-1.1 5.1-3.3 7.3-4.8 2.3-1.6 5.7-3.5 7.6-4.4 1.9-0.8 5.3-2.4 7.5-3.4 8.7-4 21.1-7.1 32-7.9 6.1-0.4 12.4-0.7 14-0.5zm-103.5 696.9h-55.9l-1.5 2.2c-1.3 1.8-1.6 5.5-1.6 19.8 0 14.3 0.3 18 1.6 19.8l1.5 2.2h55.8c52.8 0 55.9-0.1 57.4-1.8 2.5-2.7 2.5-38.2 0.1-40.6-1.4-1.4-8-1.6-57.4-1.6zm42.3 181v-107.1l-4.2-2.8c-3.5-2.5-10.5-3.1-37.9-3.1-27.4 0-34.5 0.6-38 3.1l-4.2 2.8v107c0 101.1 0.2 107.1 3.5 109.9 5.1 4.8 73.2 4.8 77.8 0.2 2.6-2.7 3-15.3 3-110zm515.7-183h-55.9l-1.5 2.2c-1.3 1.8-1.6 5.5-1.6 19.8 0 14.3 0.3 18 1.6 19.8l1.5 2.2h55.8c52.8 0 55.9-0.1 57.4-1.8 2.5-2.7 2.5-38.2 0.1-40.6-1.4-1.4-8-1.6-57.4-1.6zm40.3 185v-107.1l-4.2-2.8c-3.5-2.5-10.5-3.1-37.9-3.1-27.4 0-34.5 0.6-38 3.1l-4.2 2.8v107c0 101.1 0.2 107.1 3.5 109.9 5.1 4.8 73.2 4.8 77.8 0.2 2.6-2.7 3-15.3 3-110z"/>
	</g>
</svg>